<svg xmlns="http://www.w3.org/2000/svg" viewBox="0 0 128 128">
  <rect width="128" height="128" rx="16" fill="#121213"/>
  <!-- 5×3 Wordle grid, 22px tiles, 2px gap -->
  <rect x="5"  y="21" width="22" height="22" rx="3" fill="#538d4e"/>
  <rect x="29" y="21" width="22" height="22" rx="3" fill="#c9b458"/>
  <rect x="53" y="21" width="22" height="22" rx="3" fill="#538d4e"/>
  <rect x="77" y="21" width="22" height="22" rx="3" fill="#3a3a3c"/>
  <rect x="101" y="21" width="22" height="22" rx="3" fill="#538d4e"/>

  <rect x="5"  y="47" width="22" height="22" rx="3" fill="#3a3a3c"/>
  <rect x="29" y="47" width="22" height="22" rx="3" fill="#538d4e"/>
  <rect x="53" y="47" width="22" height="22" rx="3" fill="#c9b458"/>
  <rect x="77" y="47" width="22" height="22" rx="3" fill="#538d4e"/>
  <rect x="101" y="47" width="22" height="22" rx="3" fill="#c9b458"/>

  <rect x="5"  y="73" width="22" height="22" rx="3" fill="#538d4e"/>
  <rect x="29" y="73" width="22" height="22" rx="3" fill="#538d4e"/>
  <rect x="53" y="73" width="22" height="22" rx="3" fill="#538d4e"/>
  <rect x="77" y="73" width="22" height="22" rx="3" fill="#538d4e"/>
  <rect x="101" y="73" width="22" height="22" rx="3" fill="#538d4e"/>
</svg>
