<svg xmlns="http://www.w3.org/2000/svg" viewBox="0 0 128 128">
  <!-- Wordle-style 5-tile row -->
  <rect x="4"  y="28" width="20" height="20" rx="3" fill="#538d4e"/>
  <rect x="28" y="28" width="20" height="20" rx="3" fill="#c9b458"/>
  <rect x="52" y="28" width="20" height="20" rx="3" fill="#538d4e"/>
  <rect x="76" y="28" width="20" height="20" rx="3" fill="#3a3a3c"/>
  <rect x="100" y="28" width="20" height="20" rx="3" fill="#538d4e"/>

  <rect x="4"  y="52" width="20" height="20" rx="3" fill="#3a3a3c"/>
  <rect x="28" y="52" width="20" height="20" rx="3" fill="#538d4e"/>
  <rect x="52" y="52" width="20" height="20" rx="3" fill="#c9b458"/>
  <rect x="76" y="52" width="20" height="20" rx="3" fill="#538d4e"/>
  <rect x="100" y="52" width="20" height="20" rx="3" fill="#c9b458"/>

  <rect x="4"  y="76" width="20" height="20" rx="3" fill="#538d4e"/>
  <rect x="28" y="76" width="20" height="20" rx="3" fill="#538d4e"/>
  <rect x="52" y="76" width="20" height="20" rx="3" fill="#538d4e"/>
  <rect x="76" y="76" width="20" height="20" rx="3" fill="#538d4e"/>
  <rect x="100" y="76" width="20" height="20" rx="3" fill="#538d4e"/>
</svg>
